<svg width="800" height="400" viewBox="0 0 800 400" xmlns="http://www.w3.org/2000/svg"><g transform="translate(80, 140)">
      <circle cx="60" cy="60" r="55.2" stroke="#6366F1" stroke-width="1.5" opacity="0.3" fill="none"/>
      <circle cx="60" cy="30" r="4.8" fill="#6366F1"/>
      <circle cx="60" cy="48" r="6" fill="#6366F1"/>
      <circle cx="60" cy="66" r="7.199999999999999" fill="#4F46E5"/>
      <circle cx="60" cy="84" r="8.4" fill="#0F172A"/>
      <circle cx="36" cy="30" r="4.8" fill="#6366F1"/>
      <circle cx="84" cy="30" r="4.8" fill="#6366F1"/>
      <line x1="36" y1="30" x2="84" y2="30" stroke="#6366F1" stroke-width="2"/>
      <line x1="60" y1="30" x2="60" y2="84" stroke="#6366F1" stroke-width="2.5"/>
      <circle cx="42" cy="54" r="3.5999999999999996" fill="#475569" opacity="0.7"/>
      <circle cx="78" cy="54" r="3.5999999999999996" fill="#475569" opacity="0.7"/>
      <circle cx="48" cy="74.4" r="4.2" fill="#4F46E5" opacity="0.8"/>
      <circle cx="72" cy="74.4" r="4.2" fill="#4F46E5" opacity="0.8"/>
      <line x1="60" y1="48" x2="42" y2="54" stroke="#475569" stroke-width="1.5" opacity="0.5"/>
      <line x1="60" y1="48" x2="78" y2="54" stroke="#475569" stroke-width="1.5" opacity="0.5"/>
      <line x1="60" y1="66" x2="48" y2="74.4" stroke="#4F46E5" stroke-width="1.5" opacity="0.6"/>
      <line x1="60" y1="66" x2="72" y2="74.4" stroke="#4F46E5" stroke-width="1.5" opacity="0.6"/>
      <path d="M 60 21.599999999999998 L 56.4 26.4 M 60 21.599999999999998 L 63.6 26.4" stroke="#6366F1" stroke-width="2" stroke-linecap="round"/>
      <text x="21.599999999999998" y="62.400000000000006" fill="#6366F1" font-size="16" opacity="0.4">&lt;</text>
      <text x="93.60000000000001" y="62.400000000000006" fill="#6366F1" font-size="16" opacity="0.4">/&gt;</text>
      <path d="M 30 90 Q 60 102 90 90" stroke="#0F172A" stroke-width="2" fill="none" opacity="0.6" stroke-linecap="round"/>
      <circle cx="60" cy="84" r="13.2" stroke="#4F46E5" stroke-width="1" opacity="0.3" fill="none"/>
      <circle cx="60" cy="84" r="18" stroke="#4F46E5" stroke-width="0.5" opacity="0.15" fill="none"/>
    </g><text x="230" y="200" fill="#0F172A" font-family="'Space Grotesk', sans-serif" font-size="48" font-weight="500">theochinomona</text><text x="230" y="228" fill="#6366F1" font-family="'Space Grotesk', sans-serif" font-size="20" letter-spacing="2">.tech</text></svg>